<svg width="15" height="15" viewBox="0 0 27 27" fill="none" xmlns="http://www.w3.org/2000/svg">
<path d="M19.0854 14.7917C20.0542 14.7917 20.9067 14.2621 21.3458 13.4613L25.97 5.07833C26.0789 4.88255 26.1347 4.66173 26.132 4.43774C26.1293 4.21374 26.0682 3.99433 25.9547 3.80121C25.8412 3.6081 25.6792 3.44797 25.4848 3.33667C25.2904 3.22538 25.0703 3.16678 24.8463 3.16667H5.72958L4.51542 0.583334H0.291667V3.16667H2.875L7.525 12.9704L5.78125 16.1221C4.83833 17.8529 6.07833 19.9583 8.04167 19.9583H23.5417V17.375H8.04167L9.4625 14.7917H19.0854ZM6.95667 5.75H22.6504L19.0854 12.2083H10.0179L6.95667 5.75ZM8.04167 21.25C6.62083 21.25 5.47125 22.4125 5.47125 23.8333C5.47125 25.2542 6.62083 26.4167 8.04167 26.4167C9.4625 26.4167 10.625 25.2542 10.625 23.8333C10.625 22.4125 9.4625 21.25 8.04167 21.25ZM20.9583 21.25C19.5375 21.25 18.3879 22.4125 18.3879 23.8333C18.3879 25.2542 19.5375 26.4167 20.9583 26.4167C22.3792 26.4167 23.5417 25.2542 23.5417 23.8333C23.5417 22.4125 22.3792 21.25 20.9583 21.25Z" fill="white"/>
</svg>
